{
  "asset": {
    "extras": {
      "author": "atuyto (https://sketchfab.com/atuyto)",
      "license": "CC-BY-4.0 (http://creativecommons.org/licenses/by/4.0/)",
      "source": "https://sketchfab.com/3d-models/pack-with-all-gutter-accessories-4185ff2f593444939401884235529532",
      "title": "pack with all gutter accessories"
    },
    "generator": "gltfeditor.com",
    "version": "2.0"
  },
  "buffers": [
    {
      "uri": "data:application/octet-stream;base64,",
      "byteLength": 52392
    },
    {
      "uri": "data:application/octet-stream;base64,",
      "byteLength": 52392
    }
  ],
  "bufferViews": [
    {
      "buffer": 0,
      "byteOffset": 0,
      "byteLength": 26952,
      "byteStride": 24,
      "target": 34962
    },
    {
      "buffer": 0,
      "byteOffset": 26952,
      "byteLength": 25440,
      "target": 34963
    },
    {
      "buffer": 1,
      "byteOffset": 0,
      "byteLength": 26952,
      "byteStride": 24,
      "target": 34962
    },
    {
      "buffer": 1,
      "byteOffset": 26952,
      "byteLength": 25440,
      "target": 34963
    }
  ],
  "accessors": [
    {
      "bufferView": 0,
      "byteOffset": 0,
      "componentType": 5126,
      "normalized": false,
      "count": 1123,
      "min": [
        -0.9999594688415527,
        -1,
        -0.997743546962738
      ],
      "max": [
        1,
        1,
        1
      ],
      "type": "VEC3"
    },
    {
      "bufferView": 0,
      "byteOffset": 12,
      "componentType": 5126,
      "normalized": false,
      "count": 1123,
      "min": [
        -4.125919342041016,
        -0.44476720690727234,
        -0.0619523786008358
      ],
      "max": [
        5.958203315734863,
        0.44476714730262756,
        0.44884324073791504
      ],
      "type": "VEC3"
    },
    {
      "bufferView": 1,
      "byteOffset": 0,
      "componentType": 5125,
      "normalized": false,
      "count": 6360,
      "min": [
        0
      ],
      "max": [
        1122
      ],
      "type": "SCALAR"
    },
    {
      "bufferView": 2,
      "byteOffset": 0,
      "componentType": 5126,
      "normalized": false,
      "count": 1123,
      "min": [
        -0.9999594688415527,
        -1,
        -0.997743546962738
      ],
      "max": [
        1,
        1,
        1
      ],
      "type": "VEC3"
    },
    {
      "bufferView": 2,
      "byteOffset": 12,
      "componentType": 5126,
      "normalized": false,
      "count": 1123,
      "min": [
        -4.125919342041016,
        -0.44476720690727234,
        -0.0619523786008358
      ],
      "max": [
        5.958203315734863,
        0.44476714730262756,
        0.44884324073791504
      ],
      "type": "VEC3"
    },
    {
      "bufferView": 3,
      "byteOffset": 0,
      "componentType": 5125,
      "normalized": false,
      "count": 6360,
      "min": [
        0
      ],
      "max": [
        1122
      ],
      "type": "SCALAR"
    }
  ],
  "scene": 0,
  "scenes": [
    {
      "nodes": [
        9
      ],
      "name": "OSG_Scene"
    }
  ],
  "nodes": [
    {},
    {
      "name": "BezierCurve_0",
      "children": [
        0
      ],
      "matrix": [
        3.4228538225988814e-8,
        -0.9999998807907104,
        0,
        0,
        0.9999998807907104,
        3.4228538225988814e-8,
        0,
        0,
        0,
        0,
        1,
        0,
        0,
        0,
        0,
        1
      ]
    },
    {
      "matrix": [
        1,
        0,
        0,
        0,
        0,
        1,
        0,
        0,
        0,
        0,
        1,
        0,
        -0.15000000596046448,
        -0.15000000596046448,
        0.10000000149011612,
        1
      ],
      "mesh": 0
    },
    {
      "name": "BezierCurve.001_1",
      "children": [
        2
      ],
      "matrix": [
        5.107432343720575e-8,
        0.0015486035263165832,
        -0.9999988675117493,
        0,
        0.0001501528749940917,
        0.9999988079071045,
        0.0015486035263165832,
        0,
        1,
        -0.0001501528749940917,
        -1.814530889987509e-7,
        0,
        0,
        0.1381092071533203,
        -5.523969650268555,
        1
      ]
    },
    {
      "matrix": [
        1,
        0,
        0,
        0,
        0,
        1,
        0,
        0,
        0,
        0,
        1,
        0,
        0,
        -8.940697071579962e-9,
        1.3877787807814457e-16,
        1
      ],
      "mesh": 1
    },
    {
      "name": "BezierCurve.001_1",
      "children": [
        4
      ],
      "matrix": [
        1.5234687111842504e-7,
        0.001496270764619112,
        -0.999998927116394,
        0,
        -0.0002510501944925636,
        -0.999998927116394,
        -0.001496270764619112,
        0,
        -1,
        0.0002510501944925636,
        1.5234687111842504e-7,
        0,
        0.044535137712955475,
        0,
        -5.3653364181518555,
        1
      ]
    },
    {
      "name": "GLTF_SceneRootNode",
      "children": [
        1,
        3,
        5
      ],
      "matrix": [
        -2.8528930329230207e-8,
        0.00006032288365531713,
        0.10000000149011612,
        0,
        -0.10000002384185791,
        -0.000004956346856488381,
        -7.451252059809121e-9,
        0,
        0.000004938242454954889,
        -0.10000000149011612,
        0.000060304784710751846,
        0,
        0,
        0,
        0,
        1
      ]
    },
    {
      "name": "root",
      "children": [
        6
      ]
    },
    {
      "name": "RootNode (model correction matrix)",
      "children": [
        7
      ]
    },
    {
      "name": "RootNode (gltf orientation matrix)",
      "children": [
        8
      ],
      "matrix": [
        0.9999999403953552,
        1.5099580252808664e-7,
        0.00026165557210333645,
        0,
        -1.510353087041949e-7,
        1,
        1.5099580252808664e-7,
        0,
        -0.00026165557210333645,
        -1.510353087041949e-7,
        0.9999999403953552,
        0,
        0,
        0,
        2.7755575615628914e-17,
        1
      ]
    }
  ],
  "meshes": [
    {
      "primitives": [
        {
          "material": 0,
          "mode": 4,
          "attributes": {
            "NORMAL": 0,
            "POSITION": 1
          },
          "indices": 2
        }
      ]
    },
    {
      "primitives": [
        {
          "material": 1,
          "mode": 4,
          "attributes": {
            "NORMAL": 3,
            "POSITION": 4
          },
          "indices": 5
        }
      ]
    }
  ],
  "materials": [
    {
      "name": "",
      "pbrMetallicRoughness": {
        "baseColorFactor": [
          0.07058823529411765,
          0.07058823529411765,
          0.07058823529411765,
          1
        ],
        "metallicFactor": 0,
        "roughnessFactor": 0.5
      },
      "emissiveFactor": [
        0,
        0,
        0
      ],
      "alphaMode": "OPAQUE",
      "doubleSided": true
    },
    {
      "name": "",
      "pbrMetallicRoughness": {
        "baseColorFactor": [
          0.07058823529411765,
          0.07058823529411765,
          0.07058823529411765,
          1
        ],
        "metallicFactor": 0,
        "roughnessFactor": 0.5
      },
      "emissiveFactor": [
        0,
        0,
        0
      ],
      "alphaMode": "OPAQUE",
      "doubleSided": true
    }
  ]
}