{
  "accessors": [
    {
      "bufferView": 1,
      "componentType": 5126,
      "count": 15575,
      "max": [
        27.5,
        7.5,
        38.38909912109375
      ],
      "min": [
        -27.5,
        -7.5,
        18.607999801635742
      ],
      "type": "VEC3"
    },
    {
      "bufferView": 1,
      "byteOffset": 186900,
      "componentType": 5126,
      "count": 15575,
      "max": [
        1.0,
        1.0,
        1.0
      ],
      "min": [
        -1.0,
        -1.0,
        -1.0
      ],
      "type": "VEC3"
    },
    {
      "bufferView": 0,
      "componentType": 5125,
      "count": 86844,
      "type": "SCALAR"
    }
  ],
  "asset": {
    "extras": {
      "author": "Velivian Fesothe (https://sketchfab.com/fesothe)",
      "license": "CC-BY-4.0 (http://creativecommons.org/licenses/by/4.0/)",
      "source": "https://sketchfab.com/3d-models/door-handle-by-velivian-fesothe-1457b9cb3265466ea687e37827043375",
      "title": "Door Handle - By Velivian Fesothe"
    },
    "generator": "Sketchfab-15.29.0",
    "version": "2.0"
  },
  "bufferViews": [
    {
      "buffer": 0,
      "byteLength": 347376,
      "name": "floatBufferViews",
      "target": 34963
    },
    {
      "buffer": 0,
      "byteLength": 373800,
      "byteOffset": 347376,
      "byteStride": 12,
      "name": "floatBufferViews",
      "target": 34962
    }
  ],
  "buffers": [
    {
      "byteLength": 721176,
      "uri": "scene.bin"
    }
  ],
  "materials": [
    {
      "doubleSided": true,
      "name": "def_surf_mat",
      "pbrMetallicRoughness": {
        "baseColorFactor": [
          0.6172065624196509,
          0.6444796819705821,
          0.6795424696330938,
          1.0
        ],
        "roughnessFactor": 0.261
      }
    }
  ],
  "meshes": [
    {
      "name": "Object_0",
      "primitives": [
        {
          "attributes": {
            "NORMAL": 1,
            "POSITION": 0
          },
          "indices": 2,
          "material": 0,
          "mode": 4
        }
      ]
    }
  ],
  "nodes": [
    {
      "children": [
        1
      ],
      "matrix": [
        -2.220446049250313e-16,
        1.0,
        4.440892098500626e-16,
        0.0,
        6.123234262925839e-17,
        4.440892098500626e-16,
        -1.0,
        0.0,
        -1.0,
        -2.2204460492503128e-16,
        -6.123234262925844e-17,
        0.0,
        0.0,
        0.0,
        0.0,
        1.0
      ],
      "name": "Sketchfab_model"
    },
    {
      "children": [
        2
      ],
      "name": "02.obj.cleaner.materialmerger.gles"
    },
    {
      "mesh": 0,
      "name": "Object_2"
    }
  ],
  "scene": 0,
  "scenes": [
    {
      "name": "Sketchfab_Scene",
      "nodes": [
        0
      ]
    }
  ]
}
