<?xml version="1.0" encoding="utf-8"?>
<!-- Svg Vector Icons : http://www.onlinewebfonts.com/icon -->
<!DOCTYPE svg PUBLIC "-//W3C//DTD SVG 1.1//EN" "http://www.w3.org/Graphics/SVG/1.1/DTD/svg11.dtd">
<svg version="1.1" xmlns="http://www.w3.org/2000/svg" xmlns:xlink="http://www.w3.org/1999/xlink" x="0px" y="0px" viewBox="0 0 256 256" enable-background="new 0 0 256 256" xml:space="preserve">
<metadata> Svg Vector Icons : http://www.onlinewebfonts.com/icon </metadata>
<g><g><g><path fill="#000000" d="M35.7,96.8c-0.5,2.7-1.1,5.1-1.4,5.4c-0.3,0.2-3.5,0.7-7.2,1l-6.8,0.6v2.6v2.6l6.4-0.5c4.2-0.3,6.4-0.3,6.4,0c0,0.2-1.8,7.6-4,16.3l-3.9,15.8l-7.6,0.1L10,141v4.7v4.7h13.4l13.3,0l0.8-1.8c1.1-2.3,4-5.3,6.3-6.6l1.8-0.9l-5.8,0c-3.2,0-5.8-0.1-5.8-0.4c0-0.3,5.3-32.8,5.4-33c0.1-0.2,58-5.4,58.1-5.2c0.1,0.1-1.8,8.8-4.2,19.2c-2.5,10.4-4.5,19.1-4.5,19.2c0,0.1-2.3,0.2-5,0.2h-5l2.2,1.5c2.5,1.6,4.7,4.1,5.8,6.4l0.8,1.6h8.9h9v-4.7V141H102h-3.4l0.3-1.3c0.3-1.4,7.8-47.2,7.8-47.5c0-0.1-1.5-0.2-3.3-0.2h-3.3L99.7,94c-0.5,1.8-0.7,2.1-2.1,2.3c-2.2,0.4-57.1,5.5-57.3,5.3c-0.1-0.1,0.1-1.6,1.4-8.5c0.2-1.3,0.2-1.3-2.5-1.3h-2.7L35.7,96.8z"/><path fill="#000000" d="M142.2,93.9c-1.3,4.8-2.4,8.5-2.5,8.7c-0.1,0-3.2,0.4-6.9,0.7l-6.7,0.6v2.6v2.6l5.9-0.4c3.3-0.2,6-0.3,6.1-0.2c0.1,0.1-1.4,7.4-3.4,16.2c-3.2,14.1-3.8,16-4.6,16.1c-3.1,0.5-5,2.4-5,5c0,3.4,2.1,4.5,8.4,4.5h4.8l0.7-1.7c1-2.5,2.8-4.7,5.1-6.3l1.9-1.4H143h-3.1l0.2-1.3c0.1-0.7,1.4-8.1,2.7-16.5c1.4-8.4,2.5-15.3,2.7-15.4c0.3-0.3,61.8-6,62.1-5.8c0.1,0.1-1.8,8.8-4.3,19.4c-2.5,10.5-4.5,19.2-4.5,19.3c0,0.2-9.5,0.3-21.1,0.3c-20.8,0-21.1,0-19.7,0.9c2.1,1.2,5.3,5,5.9,6.9l0.6,1.6h24.7h24.7l0.6-1.6c1-3,3.5-5.8,6.8-7.4c2.8-1.4,3.4-1.5,6.2-1.3c5.2,0.4,9.3,3.3,11.5,8.1c1,2.3,1,2.3,2.9,2c1-0.1,2.4-0.8,3-1.3l1.1-1v-11.8c0-13.9-0.1-14.3-4.7-20.9c-5.2-7.6-6.6-8.3-16.2-8.1c-6,0.1-6.1,0.1-7.3,1.5l-1.1,1.3v15.6V141H212h-4.7l0.3-2c0.2-1.1,1.6-10,3.2-19.7l2.9-17.7l16.2-0.1l16.1-0.1v-2.8v-2.8h-15.6h-15.6l0.3-1.9l0.3-1.9h-2.6h-2.6l-0.5,2.1c-0.3,1.2-0.7,2.1-0.9,2.1c-0.1,0-14.3,1.4-31.3,3c-17.1,1.6-31.1,2.8-31.1,2.7c0-0.1,0.3-2.2,0.7-4.5c0.9-5.8,1.1-5.4-1.9-5.4h-2.5L142.2,93.9z M237.2,117.4c3.9,6.4,4.1,6.7,4.1,9.4v2.8h-10.4h-10.4v-9.4v-9.4h6.3h6.3L237.2,117.4z"/><path fill="#000000" d="M55.3,142.2c2.5,1.5,4.4,3.2,5.8,5.3l0.9,1.6l1.3-2c1.5-2.4,2.4-3.2,5.2-4.8l2.1-1.2h-8.7h-8.7L55.3,142.2z"/><path fill="#000000" d="M46.5,143.5c-7.7,2.5-10.1,11.9-4.5,17.4c5.7,5.6,14.7,3.5,17.5-4.1c1.7-4.6-0.9-10.4-5.9-13C52,143.1,48.6,142.9,46.5,143.5z M53.2,148.3c0.7,0.4,1.7,1.7,2.1,2.9c0.8,1.7,0.8,2.4,0.5,3.8c-0.7,2.5-1.6,3.6-3.5,4.6c-2,0.9-3.7,0.9-5.8,0c-4.6-2.2-4.6-9.3-0.1-11.6C48.3,146.9,51.4,147.1,53.2,148.3z"/><path fill="#000000" d="M71.8,143.5c-6.5,1.7-9.6,8.8-6.5,14.9c2.5,5.1,8.5,7.1,13.9,4.5c2.8-1.3,3.6-2.2,4.9-5C87.7,149.9,80.3,141.2,71.8,143.5z M78,148.2c4.4,2.9,4.1,8.9-0.6,11.3c-5.8,3-11.6-3.3-8.5-9C70.7,147.3,75,146.2,78,148.2z"/><path fill="#000000" d="M148.4,143.5c-7.7,2.5-10.1,11.9-4.5,17.4c6.5,6.3,16.9,2.6,17.9-6.4c0.3-2.7-0.8-6.1-2.6-8.1C156.7,143.8,151.9,142.4,148.4,143.5z M155.2,148.3c0.7,0.4,1.7,1.7,2.1,2.9c0.8,1.7,0.8,2.4,0.5,3.8c-0.7,2.5-1.6,3.6-3.5,4.6c-2,0.9-3.7,0.9-5.8,0c-4.6-2.2-4.6-9.3-0.1-11.6C150.3,146.9,153.4,147.1,155.2,148.3z"/><path fill="#000000" d="M224.5,143.3c-7.2,1.8-10.4,9.7-6.6,16c2.5,4.2,8.4,6,12.8,4.2c4.3-1.8,7.2-6.8,6.5-11.4C236.4,146.4,230,141.9,224.5,143.3z M229.8,147.9c4.6,2.2,4.6,9.4,0,11.7c-4.5,2.1-9.4-0.9-9.4-5.9C220.3,148.7,225.2,145.7,229.8,147.9z"/><path fill="#000000" d="M95.9,156.1v3.8h18.9h18.9v-3.8v-3.8h-18.9H95.9V156.1L95.9,156.1z"/></g></g></g>
</svg>