{
  "asset": {
    "extras": {
      "author": "atuyto (https://sketchfab.com/atuyto)",
      "license": "CC-BY-4.0 (http://creativecommons.org/licenses/by/4.0/)",
      "source": "https://sketchfab.com/3d-models/pack-with-all-gutter-accessories-4185ff2f593444939401884235529532",
      "title": "pack with all gutter accessories"
    },
    "generator": "gltfeditor.com",
    "version": "2.0"
  },
  "buffers": [
    {
      "uri": "data:application/octet-stream;base64,",
      "byteLength": 52392
    },
    {
      "uri": "data:application/octet-stream;base64,",
      "byteLength": 116328
    }
  ],
  "bufferViews": [
    {
      "buffer": 0,
      "byteOffset": 0,
      "byteLength": 26952,
      "byteStride": 24,
      "target": 34962
    },
    {
      "buffer": 0,
      "byteOffset": 26952,
      "byteLength": 25440,
      "target": 34963
    },
    {
      "buffer": 1,
      "byteOffset": 0,
      "byteLength": 46920,
      "byteStride": 24,
      "target": 34962
    },
    {
      "buffer": 1,
      "byteOffset": 46920,
      "byteLength": 31280,
      "byteStride": 16,
      "target": 34962
    },
    {
      "buffer": 1,
      "byteOffset": 78200,
      "byteLength": 15640,
      "byteStride": 8,
      "target": 34962
    },
    {
      "buffer": 1,
      "byteOffset": 93840,
      "byteLength": 22488,
      "target": 34963
    }
  ],
  "accessors": [
    {
      "bufferView": 0,
      "byteOffset": 0,
      "componentType": 5126,
      "normalized": false,
      "count": 1123,
      "min": [
        -0.9999594688415527,
        -1,
        -0.997743546962738
      ],
      "max": [
        1,
        1,
        1
      ],
      "type": "VEC3"
    },
    {
      "bufferView": 0,
      "byteOffset": 12,
      "componentType": 5126,
      "normalized": false,
      "count": 1123,
      "min": [
        -4.125919342041016,
        -0.44476720690727234,
        -0.0619523786008358
      ],
      "max": [
        5.958203315734863,
        0.44476714730262756,
        0.44884324073791504
      ],
      "type": "VEC3"
    },
    {
      "bufferView": 1,
      "byteOffset": 0,
      "componentType": 5125,
      "normalized": false,
      "count": 6360,
      "min": [
        0
      ],
      "max": [
        1122
      ],
      "type": "SCALAR"
    },
    {
      "bufferView": 2,
      "byteOffset": 0,
      "componentType": 5126,
      "normalized": false,
      "count": 1955,
      "min": [
        -0.9997543692588806,
        -1,
        -0.9999990463256836
      ],
      "max": [
        0.9996552467346191,
        1,
        0.9999977350234985
      ],
      "type": "VEC3"
    },
    {
      "bufferView": 2,
      "byteOffset": 12,
      "componentType": 5126,
      "normalized": false,
      "count": 1955,
      "min": [
        -1.4956825971603394,
        -0.6685857772827148,
        -0.09578567743301392
      ],
      "max": [
        -0.8579809665679932,
        0.48347216844558716,
        0.45985913276672363
      ],
      "type": "VEC3"
    },
    {
      "bufferView": 3,
      "byteOffset": 0,
      "componentType": 5126,
      "normalized": false,
      "count": 1955,
      "min": [
        -0.9973179697990417,
        -0.9989625215530396,
        -0.9997467994689941,
        -1
      ],
      "max": [
        0.9970953464508057,
        0.943530797958374,
        0.9998123049736023,
        1
      ],
      "type": "VEC4"
    },
    {
      "bufferView": 4,
      "byteOffset": 0,
      "componentType": 5126,
      "normalized": false,
      "count": 1955,
      "min": [
        0,
        0
      ],
      "max": [
        1,
        0.8317626714706421
      ],
      "type": "VEC2"
    },
    {
      "bufferView": 5,
      "byteOffset": 0,
      "componentType": 5125,
      "normalized": false,
      "count": 5622,
      "min": [
        0
      ],
      "max": [
        1954
      ],
      "type": "SCALAR"
    }
  ],
  "scene": 0,
  "scenes": [
    {
      "nodes": [
        12
      ],
      "name": "OSG_Scene"
    }
  ],
  "nodes": [
    {},
    {
      "name": "BezierCurve_0",
      "children": [
        0
      ],
      "matrix": [
        3.4228538225988814e-8,
        -0.9999998211860657,
        0,
        0,
        0.9999998211860657,
        3.4228538225988814e-8,
        0,
        0,
        0,
        0,
        1,
        0,
        0,
        0,
        0,
        1
      ]
    },
    {
      "matrix": [
        1.5,
        0,
        0,
        0,
        0,
        1,
        0,
        0,
        0,
        0,
        1.0010000467300415,
        0,
        2.0999999046325684,
        0,
        -0.059441447257995605,
        1
      ],
      "mesh": 0
    },
    {
      "name": "BezierCurve.001_1",
      "children": [
        2
      ],
      "matrix": [
        -5.498973365547499e-8,
        0.001613795175217092,
        -0.9999986886978149,
        0,
        1,
        -5.498973365547499e-8,
        -5.965272009689215e-8,
        0,
        -5.965272009689215e-8,
        -0.9999986886978149,
        -0.0016137906350195408,
        0,
        0,
        0.1381092071533203,
        -5.523969650268555,
        1
      ]
    },
    {
      "matrix": [
        1,
        0,
        0,
        0,
        0,
        1,
        0,
        0,
        0,
        0,
        1,
        0,
        -2.700000047683716,
        5.551115123125783e-17,
        8.326672684688674e-17,
        1
      ]
    },
    {
      "name": "BezierCurve.002_2",
      "children": [
        4
      ],
      "matrix": [
        0.01373367290943861,
        -1.0561374691464565e-10,
        1.1677961349487305,
        0,
        -0.0007780937594361603,
        -1.1678766012191772,
        0.000009150540790869854,
        0,
        1.1677961349487305,
        -0.000778147776145488,
        -0.013733685947954655,
        0,
        0,
        0.003627777099609375,
        3.2282278537750244,
        1
      ]
    },
    {
      "matrix": [
        1,
        0,
        0,
        0,
        0,
        1,
        0,
        0,
        0,
        0,
        1,
        0,
        1,
        2.7755575615628914e-17,
        0,
        1
      ],
      "mesh": 1
    },
    {
      "matrix": [
        1,
        0,
        0,
        0,
        0,
        1,
        0,
        0,
        0,
        0,
        1,
        0,
        14.465241432189941,
        2.7755575615628914e-17,
        0,
        1
      ],
      "mesh": 2
    },
    {
      "name": "BezierCurve.003_4",
      "children": [
        6,
        7
      ],
      "matrix": [
        -1.1990303505626798e-7,
        0.0016892021521925926,
        -1.0467637777328491,
        0,
        1.0467650890350342,
        -1.1990303505626798e-7,
        -6.244238193175988e-8,
        0,
        -6.244238193175988e-8,
        -1.0467637777328491,
        -0.001689259777776897,
        0,
        0.001786442706361413,
        0.13145726919174194,
        -2.122868061065674,
        1
      ]
    },
    {
      "name": "GLTF_SceneRootNode",
      "children": [
        1,
        3,
        5,
        8
      ],
      "matrix": [
        0.00004775787238031626,
        4.18571977078841e-9,
        0.10000000894069672,
        0,
        -0.00001628688733035233,
        0.10000000894069672,
        3.593029651582924e-9,
        0,
        -0.10000000894069672,
        -0.000016286889149341732,
        0.00004775787238031626,
        0,
        -0.8999999761581421,
        -7.599592777296493e-8,
        -1.8500001430511475,
        1
      ]
    },
    {
      "name": "root",
      "children": [
        9
      ],
      "matrix": [
        1,
        0,
        1.6644756684058848e-8,
        0,
        0,
        1,
        0,
        0,
        -1.6644756684058848e-8,
        0,
        1,
        0,
        0,
        0,
        1.850000023841858,
        1
      ]
    },
    {
      "name": "RootNode (model correction matrix)",
      "children": [
        10
      ]
    },
    {
      "name": "RootNode (gltf orientation matrix)",
      "children": [
        11
      ],
      "matrix": [
        0.9999999403953552,
        1.5099580252808664e-7,
        0.00026165557210333645,
        0,
        -1.510353087041949e-7,
        1,
        1.5099580252808664e-7,
        0,
        -0.00026165557210333645,
        -1.510353087041949e-7,
        0.9999999403953552,
        0,
        0,
        0,
        2.7755575615628914e-17,
        1
      ]
    }
  ],
  "meshes": [
    {
      "primitives": [
        {
          "material": 0,
          "mode": 4,
          "attributes": {
            "NORMAL": 0,
            "POSITION": 1
          },
          "indices": 2
        }
      ]
    },
    {
      "primitives": [
        {
          "material": 0,
          "mode": 4,
          "attributes": {
            "NORMAL": 3,
            "POSITION": 4,
            "TANGENT": 5,
            "TEXCOORD_0": 6
          },
          "indices": 7
        }
      ]
    },
    {
      "primitives": [
        {
          "material": 1,
          "mode": 4,
          "attributes": {
            "NORMAL": 3,
            "POSITION": 4,
            "TANGENT": 5,
            "TEXCOORD_0": 6
          },
          "indices": 7
        }
      ]
    }
  ],
  "materials": [
    {
      "name": "",
      "pbrMetallicRoughness": {
        "baseColorFactor": [
          0.07058823529411765,
          0.07058823529411765,
          0.07058823529411765,
          1
        ],
        "metallicFactor": 0,
        "roughnessFactor": 0.5
      },
      "emissiveFactor": [
        0,
        0,
        0
      ],
      "alphaMode": "OPAQUE",
      "doubleSided": true
    },
    {
      "name": "",
      "pbrMetallicRoughness": {
        "baseColorFactor": [
          0.07058823529411765,
          0.07058823529411765,
          0.07058823529411765,
          1
        ],
        "metallicFactor": 0,
        "roughnessFactor": 0.5
      },
      "emissiveFactor": [
        0,
        0,
        0
      ],
      "alphaMode": "OPAQUE",
      "doubleSided": true
    }
  ]
}